<svg width="55" height="40" viewBox="0 0 55 40" fill="none" xmlns="http://www.w3.org/2000/svg">
<path d="M46.2 17.7031C46.5523 16.8672 46.75 15.9531 46.75 15C46.75 10.8594 43.0547 7.5 38.5 7.5C36.807 7.5 35.2258 7.96875 33.9195 8.76562C31.5391 5.01562 27.0961 2.5 22 2.5C14.4031 2.5 8.25 8.09375 8.25 15C8.25 15.2109 8.25859 15.4219 8.26719 15.6328C3.45469 17.1719 0 21.3438 0 26.25C0 32.4609 5.54297 37.5 12.375 37.5H44C50.0758 37.5 55 33.0234 55 27.5C55 22.6641 51.2187 18.625 46.2 17.7031ZM33.8078 22.5H28.1875V31.25C28.1875 31.9375 27.5688 32.5 26.8125 32.5H22.6875C21.9312 32.5 21.3125 31.9375 21.3125 31.25V22.5H15.6922C14.4633 22.5 13.8531 21.1563 14.7211 20.3672L23.7789 12.1328C24.3117 11.6484 25.1883 11.6484 25.7211 12.1328L34.7789 20.3672C35.6469 21.1563 35.0281 22.5 33.8078 22.5Z" fill="#3CB24A"/>
</svg>
